HIERARCHY
ROOT reference
{
  OFFSET 0 0 0
  CHANNELS 6 Xposition Yposition Zposition Zrotation Xrotation Yrotation
  JOINT root
  {
    OFFSET 58.8117 94.2893 -169.899
    CHANNELS 6 Xposition Yposition Zposition Zrotation Xrotation Yrotation
    JOINT lhipjoint
    {
      OFFSET 0 0 0
      CHANNELS 6 Xposition Yposition Zposition Zrotation Xrotation Yrotation
      JOINT lfemur
      {
        OFFSET 18.7027 -20.3519 7.05291
        CHANNELS 6 Xposition Yposition Zposition Zrotation Xrotation Yrotation
        JOINT ltibia
        {
          OFFSET -2.26639e-05 -85.7245 0
          CHANNELS 6 Xposition Yposition Zposition Zrotation Xrotation Yrotation
          JOINT lfoot
          {
            OFFSET -2.1749e-05 -82.2641 0
            CHANNELS 6 Xposition Yposition Zposition Zrotation Xrotation Yrotation
            JOINT ltoes
            {
              OFFSET 0 -24.2238 -6.50353
              CHANNELS 6 Xposition Yposition Zposition Zrotation Xrotation Yrotation
              End Site
              {
                OFFSET 0 -12.5588 0
              }
            }
          }
        }
      }
    }
    JOINT rhipjoint
    {
      OFFSET 0 0 0
      CHANNELS 6 Xposition Yposition Zposition Zrotation Xrotation Yrotation
      JOINT rfemur
      {
        OFFSET -18.183 -20.3519 7.0529
        CHANNELS 6 Xposition Yposition Zposition Zrotation Xrotation Yrotation
        JOINT rtibia
        {
          OFFSET 2.26449e-05 -85.6526 0
          CHANNELS 6 Xposition Yposition Zposition Zrotation Xrotation Yrotation
          JOINT rfoot
          {
            OFFSET 2.15348e-05 -81.4536 0
            CHANNELS 6 Xposition Yposition Zposition Zrotation Xrotation Yrotation
            JOINT rtoes
            {
              OFFSET 0 -24.0868 -7.59939
              CHANNELS 6 Xposition Yposition Zposition Zrotation Xrotation Yrotation
              End Site
              {
                OFFSET 0 -12.5949 0
              }
            }
          }
        }
      }
    }
    JOINT lowerback
    {
      OFFSET 0 0 0
      CHANNELS 6 Xposition Yposition Zposition Zrotation Xrotation Yrotation
      JOINT upperback
      {
        OFFSET 0.221397 23.193 -1.59304
        CHANNELS 6 Xposition Yposition Zposition Zrotation Xrotation Yrotation
        JOINT thorax
        {
          OFFSET 0.115265 23.3043 -0.668419
          CHANNELS 6 Xposition Yposition Zposition Zrotation Xrotation Yrotation
          JOINT lowerneck
          {
            OFFSET 0.0170354 23.346 0.0907241
            CHANNELS 6 Xposition Yposition Zposition Zrotation Xrotation Yrotation
            JOINT upperneck
            {
              OFFSET 0.0804846 17.6909 1.68976
              CHANNELS 6 Xposition Yposition Zposition Zrotation Xrotation Yrotation
              JOINT head
              {
                OFFSET 0.387048 17.6153 -1.12954
                CHANNELS 6 Xposition Yposition Zposition Zrotation Xrotation Yrotation
                End Site
                {
                  OFFSET 0.147332 18.3512 -0.594341
                }
              }
            }
          }
          JOINT lclavicle
          {
            OFFSET 0.0170354 23.346 0.0907241
            CHANNELS 6 Xposition Yposition Zposition Zrotation Xrotation Yrotation
            JOINT lhumerus
            {
              OFFSET 39.9858 10.2092 -1.96018
              CHANNELS 6 Xposition Yposition Zposition Zrotation Xrotation Yrotation
              JOINT lradius
              {
                OFFSET 0 -54.9219 0
                CHANNELS 6 Xposition Yposition Zposition Zrotation Xrotation Yrotation
                JOINT lwrist
                {
                  OFFSET 0 -37.8803 0
                  CHANNELS 6 Xposition Yposition Zposition Zrotation Xrotation Yrotation
                  JOINT lhand
                  {
                    OFFSET 0 -18.9402 0
                    CHANNELS 6 Xposition Yposition Zposition Zrotation Xrotation Yrotation
                    JOINT lfingers
                    {
                      OFFSET 0 -7.46393 0
                      CHANNELS 6 Xposition Yposition Zposition Zrotation Xrotation Yrotation
                      End Site
                      {
                        OFFSET 0 -6.01762 0
                      }
                    }
                  }
                  JOINT lthumb
                  {
                    OFFSET 0 -18.9402 0
                    CHANNELS 6 Xposition Yposition Zposition Zrotation Xrotation Yrotation
                    End Site
                    {
                      OFFSET 0 -8.64013 0
                    }
                  }
                }
              }
            }
          }
          JOINT rclavicle
          {
            OFFSET 0.0170354 23.346 0.0907241
            CHANNELS 6 Xposition Yposition Zposition Zrotation Xrotation Yrotation
            JOINT rhumerus
            {
              OFFSET -39.4887 8.57888 -3.68193
              CHANNELS 6 Xposition Yposition Zposition Zrotation Xrotation Yrotation
              JOINT rradius
              {
                OFFSET 0 -56.7435 0
                CHANNELS 6 Xposition Yposition Zposition Zrotation Xrotation Yrotation
                JOINT rwrist
                {
                  OFFSET 0 -37.9793 0
                  CHANNELS 6 Xposition Yposition Zposition Zrotation Xrotation Yrotation
                  JOINT rhand
                  {
                    OFFSET 0 -18.9897 0
                    CHANNELS 6 Xposition Yposition Zposition Zrotation Xrotation Yrotation
                    JOINT rfingers
                    {
                      OFFSET 0 -8.24547 0
                      CHANNELS 6 Xposition Yposition Zposition Zrotation Xrotation Yrotation
                      End Site
                      {
                        OFFSET 0 -6.64771 0
                      }
                    }
                  }
                  JOINT rthumb
                  {
                    OFFSET 0 -18.9897 0
                    CHANNELS 6 Xposition Yposition Zposition Zrotation Xrotation Yrotation
                    End Site
                    {
                      OFFSET 0 -9.54482 0
                    }
                  }
                }
              }
            }
          }
        }
      }
    }
  }
}
MOTION
Frames:	4
Frame Time:	0.0416667
0 0 0 0 0 -0 58.8117 94.2893 -169.899 -3.43411 -2.4532 -9.83104 0 0 0 -2.98177e-16 -1.19271e-15 -0 18.7027 -20.3519 7.05291 -0.721451 -28.0143 -1.15628 -2.26639e-05 -85.7245 0 -1.39748e-16 22.3977 -1.72003e-15 -2.1749e-05 -82.2641 -1.42109e-14 132.633 -71.9558 131.197 -4.6047e-06 -24.2238 -6.50353 1.11777e-15 -10.2227 1.81792e-15 0 0 0 -2.98177e-16 -1.19271e-15 -0 -18.183 -20.3519 7.0529 9.34278 16.1679 2.04807 2.26449e-05 -85.6526 0 -3.97569e-16 11.5302 -0 2.15348e-05 -81.4536 0 176.769 -74.0052 176.639 2.94741e-06 -24.0868 -7.59939 -9.75905e-16 4.33359 2.39226e-15 0 0 0 6.13985 7.86275 1.58765 0.221397 23.193 -1.59304 1.50202 3.4691 2.55695 0.115265 23.3043 -0.668419 -2.04146 -0.599434 1.31951 0.0170354 23.346 0.0907241 1.93446 -12.4581 4.1653 0.0804846 17.6909 1.68976 -6.5656 1.61008 5.61468 0.387048 17.6153 -1.12954 -2.05974 2.96932 2.55084 0.0170354 23.346 0.0907241 -1.42131e-14 -7.95139e-16 -1.59028e-14 39.9858 10.2092 -1.96018 -7.12632 11.9937 -138.924 2.13549e-09 -54.9219 1.23289e-09 2.36345e-15 20.3824 -6.78599e-15 1.47281e-09 -37.8803 8.50321e-10 -1.76866e-14 2.89528e-14 -120 0 -18.9402 -8.50321e-10 22.8474 -21.8909 1.45678e-14 2.84217e-14 -7.46393 -3.35191e-10 3.37934e-15 7.12502 -1.60265e-15 0 -18.9402 -8.50321e-10 -4.60345e-16 4.5141 7.97613e-16 0.0170354 23.346 0.0907241 -1.42131e-14 -7.95139e-16 -1.59028e-14 -39.4887 8.57888 -3.68193 -10.7944 -20.4339 -170.369 -2.20626e-09 -56.7435 1.27378e-09 -1.72935e-15 46.2257 4.59738e-15 -1.47664e-09 -37.9793 8.52523e-10 -4.868e-14 -1.90617e-14 103.22 0 -18.9897 -8.52662e-10 18.5743 -25.9429 8.40031e-15 0 -8.24547 -3.70235e-10 8.94531e-16 7.12502 -7.21194e-15 0 -18.9897 -8.52662e-10 33.5954 0.600913 -8.9458e-15 
0 0 0 0 0 -0 58.7683 94.1719 -168.864 -3.30153 -2.65622 -10.0191 0 0 0 -5.96354e-16 -7.95139e-16 3.18055e-15 18.7027 -20.3519 7.05291 -1.08113 -27.7266 -1.08138 -2.26639e-05 -85.7245 -1.42109e-14 -2.24705e-15 22.4403 1.72056e-15 -2.1749e-05 -82.2641 1.42109e-14 132.831 -71.6288 131.341 -4.6047e-06 -24.2238 -6.50353 -3.97569e-16 -8.50898 -0 0 0 0 -5.96354e-16 -7.95139e-16 3.18055e-15 -18.183 -20.3519 7.0529 9.03828 17.1741 2.1582 2.26449e-05 -85.6526 2.84217e-14 -1.98785e-15 11.2689 -0 2.15348e-05 -81.4536 0 176.581 -74.2785 176.449 2.94741e-06 -24.0868 -7.59939 -7.80319e-16 2.13469 -3.97845e-16 0 0 0 5.87721 7.44284 1.6678 0.221397 23.193 -1.59304 1.49494 3.90855 2.59156 0.115265 23.3043 -0.668419 -1.87098 0.0784336 1.35992 0.0170354 23.346 0.0907241 1.99698 -13.0055 4.26028 0.0804846 17.6909 1.68976 -6.5794 1.41248 5.71869 0.387048 17.6153 -1.12954 -2.05992 3.01007 2.59564 0.0170354 23.346 0.0907241 -1.5207e-14 3.18055e-15 -1.66979e-14 39.9858 10.2092 -1.96018 -7.33165 11.3243 -138.691 2.13547e-09 -54.9219 1.23291e-09 -6.36111e-15 20.2985 -0 1.47281e-09 -37.8803 8.50349e-10 -2.10955e-14 1.62306e-14 -120 -2.84217e-14 -18.9402 -8.50321e-10 23.0074 -21.8948 -2.57085e-15 0 -7.46393 -3.35191e-10 3.08116e-15 7.12502 8.01327e-16 -2.84217e-14 -18.9402 -8.50321e-10 8.57862e-16 4.51038 -7.97609e-16 0.0170354 23.346 0.0907241 -1.5207e-14 3.18055e-15 -1.66979e-14 -39.4887 8.57888 -3.68193 -10.8518 -21.1178 -170.669 -2.20627e-09 -56.7435 1.27378e-09 4.31933e-15 46.025 -5.72582e-15 -1.47664e-09 -37.9793 8.52538e-10 -5.10827e-14 1.63796e-15 103.499 0 -18.9897 -8.52658e-10 18.1444 -25.3785 1.76014e-15 7.10543e-15 -8.24547 -3.70243e-10 -2.28602e-15 7.12502 5.60929e-15 0 -18.9897 -8.52658e-10 33.1677 1.14599 -9.94122e-15 
0 0 0 0 0 -0 58.7231 94.1205 -167.82 -3.15984 -2.69431 -10.1217 0 0 0 -9.93923e-17 0 -0 18.7027 -20.3519 7.05291 -1.44269 -27.6285 -0.888743 -2.26639e-05 -85.7245 0 -5.34553e-16 22.6883 3.44732e-15 -2.1749e-05 -82.2641 0 132.595 -71.733 131.122 -4.6047e-06 -24.2238 -6.50353 -1.93965e-17 -9.16579 -2.61762e-15 0 0 0 -9.93923e-17 0 -0 -18.183 -20.3519 7.0529 8.70938 17.7249 2.15232 2.26449e-05 -85.6526 0 0 11.5582 -0 2.15348e-05 -81.4536 0 175.698 -74.2952 175.531 2.94741e-06 -24.0868 -7.59939 1.57713e-15 0.947116 7.95247e-16 0 0 0 5.70707 7.31176 1.76359 0.221397 23.193 -1.59304 1.42893 3.96407 2.69551 0.115265 23.3043 -0.668419 -1.84255 0.210967 1.4145 0.0170354 23.346 0.0907241 2.03384 -13.0839 4.25247 0.0804846 17.6909 1.68976 -6.35909 1.07657 5.67083 0.387048 17.6153 -1.12954 -2.00045 2.8992 2.58531 0.0170354 23.346 0.0907241 -1.45113e-14 0 -1.66979e-14 39.9858 10.2092 -1.96018 -7.31531 11.0681 -138.393 2.13547e-09 -54.9219 1.23292e-09 3.47926e-15 20.0338 -1.01562e-14 1.47284e-09 -37.8803 8.50349e-10 -2.10955e-14 1.62306e-14 -120 0 -18.9402 -8.50349e-10 22.4255 -21.8549 2.74147e-14 0 -7.46393 -3.35191e-10 3.27995e-15 7.12502 -8.01327e-16 0 -18.9402 -8.50349e-10 -8.58401e-16 4.54893 7.97651e-16 0.0170354 23.346 0.0907241 -1.45113e-14 0 -1.66979e-14 -39.4887 8.57888 -3.68193 -10.8133 -21.2851 -170.888 -2.20627e-09 -56.7435 1.27378e-09 9.72738e-15 45.6614 -1.1377e-14 -1.47664e-09 -37.9793 8.52538e-10 7.65349e-14 -1.66975e-15 103.767 -1.42109e-14 -18.9897 -8.52658e-10 18.2868 -25.4766 1.36522e-14 1.42109e-14 -8.24547 -3.70235e-10 2.43511e-15 7.12502 -6.81128e-15 -1.42109e-14 -18.9897 -8.52658e-10 33.3096 1.05121 -1.01397e-14 
0 0 0 0 0 -0 58.6746 94.0906 -166.737 -2.89986 -2.61101 -10.2021 0 0 0 -9.93923e-17 7.95139e-16 -0 18.7027 -20.3519 7.05291 -1.80513 -27.6586 -0.45156 -2.26639e-05 -85.7245 -1.42109e-14 3.18055e-15 23.2338 -0 -2.1749e-05 -82.2641 0 132.34 -72.2844 130.958 -4.6047e-06 -24.2238 -6.50353 -1.08742e-15 -11.0921 -1.51927e-15 0 0 0 -9.93923e-17 7.95139e-16 -0 -18.183 -20.3519 7.0529 8.31707 18.1956 2.19796 2.26449e-05 -85.6526 -2.84217e-14 -8.61357e-16 11.7698 -1.62443e-15 2.15348e-05 -81.4536 -2.84217e-14 174.818 -74.569 174.625 2.94741e-06 -24.0868 -7.59939 5.26547e-18 0.379411 -7.95156e-16 0 0 0 5.51351 7.18997 1.83814 0.221397 23.193 -1.59304 1.2646 3.8144 2.78031 0.115265 23.3043 -0.668419 -1.91125 0.127532 1.4515 0.0170354 23.346 0.0907241 2.26514 -12.8837 4.23676 0.0804846 17.6909 1.68976 -6.15939 0.70275 5.58561 0.387048 17.6153 -1.12954 -1.9916 2.73164 2.56185 0.0170354 23.346 0.0907241 -1.41137e-14 0 -1.59028e-14 39.9858 10.2092 -1.96018 -7.17397 11.0627 -138.218 2.13547e-09 -54.9219 1.23293e-09 -2.73667e-15 19.8211 3.38085e-15 1.47284e-09 -37.8803 8.50335e-10 3.51289e-14 -1.62306e-14 -120 0 -18.9402 -8.50321e-10 21.7339 -21.9082 2.6568e-14 0 -7.46393 -3.35177e-10 -3.13086e-15 7.12502 -4.00663e-16 0 -18.9402 -8.50321e-10 1.65282e-15 4.4974 -7.97595e-16 0.0170354 23.346 0.0907241 -1.41137e-14 0 -1.59028e-14 -39.4887 8.57888 -3.68193 -10.5985 -21.1328 -170.89 -2.20627e-09 -56.7435 1.2738e-09 6.61056e-15 45.3027 -6.7829e-15 -1.47664e-09 -37.9793 8.52552e-10 -9.5324e-16 7.80883e-15 103.92 -7.10543e-15 -18.9897 -8.52669e-10 18.5475 -25.8146 7.94955e-15 -2.13163e-14 -8.24547 -3.70243e-10 -2.98177e-16 7.12502 2.40398e-15 -7.10543e-15 -18.9897 -8.52669e-10 33.5689 0.724814 -2.18681e-15 
